<svg width="24" height="20" viewBox="0 0 24 20" fill="none" xmlns="http://www.w3.org/2000/svg">
<path d="M13.2171 4.63646C12.6798 4.91106 11.5814 5.91393 11.4501 7.08395C11.4501 7.13171 11.3904 7.14365 11.3665 7.10783C7.6774 2.17704 14.0886 -0.354023 18.8284 0.0399626C16.8465 2.23673 17.1928 5.6274 15.5929 8.03907C14.9482 8.95837 13.5394 9.35236 12.5963 8.70765C12.1306 8.37336 12.9305 5.97363 13.3962 4.80361C13.4439 4.69616 13.3245 4.58871 13.229 4.63646H13.2171Z" fill="#0EAB5A"/>
<path d="M23.866 10.7968C23.3168 9.73428 21.4424 9.54326 19.3053 10.3432C18.4218 10.6775 17.8607 10.8446 17.5145 10.9401C17.419 10.7491 17.3115 10.5819 17.1802 10.4387C16.6668 9.86561 15.6639 9.79398 12.918 9.73428C11.8673 9.7104 10.7809 9.68653 10.1481 9.59101C8.8229 9.37611 6.01724 9.63877 5.43223 9.69846V9.56714C5.43223 8.28967 4.39354 7.25098 3.11607 7.25098H1.22972C0.5492 7.25098 0 7.80017 0 8.48069V17.8528C0 18.5333 0.5492 19.0825 1.22972 19.0825H3.11607C4.39354 19.0825 5.43223 18.0438 5.43223 16.7663V16.6111C6.44704 17.0051 8.14238 17.6259 9.50342 17.8767C9.87353 17.9483 10.2198 18.0319 10.566 18.1274C11.2704 18.3065 12.0106 18.4975 12.8583 18.4975C13.8134 18.4975 14.8879 18.2468 16.1773 17.4707C18.0995 16.3007 20.1769 14.8322 21.6931 13.7458C22.2662 13.3398 22.7676 12.9817 23.1377 12.731C24.0809 12.0863 24.1287 11.2983 23.8541 10.773L23.866 10.7968ZM3.65333 16.7783C3.65333 17.0648 3.41455 17.3036 3.12801 17.3036H1.80279V9.05376H3.12801C3.41455 9.05376 3.65333 9.29254 3.65333 9.57907V16.7902V16.7783ZM20.6664 12.3131C19.174 13.3757 17.1324 14.8322 15.258 15.9664C13.4672 17.0529 12.4404 16.7783 11.0197 16.4201C10.6376 16.3246 10.2556 16.2171 9.84965 16.1455C8.28564 15.847 6.07694 14.9755 5.44417 14.7128V11.4893C5.44417 11.4893 5.50387 11.4893 5.52775 11.4893C6.41123 11.3938 8.89454 11.2028 9.88547 11.358C10.6376 11.4774 11.736 11.5012 12.906 11.5251C13.9208 11.549 15.4251 11.5848 15.9266 11.7161C15.9743 11.8236 16.0102 11.9669 15.9863 12.0146C15.9505 12.0863 15.6162 12.325 14.5536 12.2773C11.9628 12.1698 11.4614 12.2773 10.1242 12.6474L9.56311 12.8026C9.08556 12.9339 8.79902 13.4234 8.93035 13.901C9.0378 14.295 9.39597 14.5696 9.78996 14.5696C9.86159 14.5696 9.94517 14.5696 10.0168 14.5337L10.5899 14.3785C11.7002 14.0681 12.0345 13.9726 14.4581 14.0801C16.4997 14.1636 17.2757 13.4354 17.5861 12.7907C17.5861 12.7907 17.5861 12.7668 17.5861 12.7548C18.183 12.6354 18.9471 12.3847 19.9261 12.0146C20.6067 11.7639 21.1797 11.6684 21.5976 11.6445C21.323 11.8355 21.0006 12.0624 20.6664 12.3131Z" fill="#1F7448"/>
</svg>
