<svg width="32" height="32" viewBox="0 0 32 32" fill="none" xmlns="http://www.w3.org/2000/svg">
<path d="M27.1071 15.5561L4.89286 15.5561C4.40476 15.5561 4 15.9608 4 16.4489C4 16.937 4.40476 17.3418 4.89286 17.3418L27.1071 17.3418C27.5952 17.3418 28 16.937 28 16.4489C28 15.9608 27.5952 15.5561 27.1071 15.5561Z" fill="#1C1E1D"/>
<path d="M12.6795 6.8777C12.4414 6.8777 12.2033 6.9729 12.0366 7.1515L4.54855 15.0801C3.82236 15.842 3.82236 17.0324 4.54855 17.7943L12.0366 25.7229C12.37 26.08 12.9414 26.092 13.2985 25.7586C13.6557 25.4253 13.6676 24.8539 13.3343 24.4967L5.84617 16.5681C5.77474 16.4967 5.77474 16.3777 5.84617 16.3062L13.3343 8.3777C13.6676 8.0205 13.6557 7.4491 13.2985 7.1158C13.12 6.9491 12.9057 6.8658 12.6795 6.8658V6.8777Z" fill="#1C1E1D"/>
</svg>
