<svg width="22" height="23" viewBox="0 0 22 23" fill="none" xmlns="http://www.w3.org/2000/svg">
<path d="M0.949754 22.2329C0.708345 22.2329 0.466936 22.144 0.27635 21.9534C-0.0921166 21.585 -0.0921166 20.9752 0.27635 20.6068L20.3768 0.50922C20.7453 0.140807 21.3552 0.140807 21.7236 0.50922C22.0921 0.877634 22.0921 1.48742 21.7236 1.85583L1.62316 21.9534C1.43257 22.144 1.19116 22.2329 0.949754 22.2329Z" fill="black"/>
<path d="M21.0502 22.2329C20.8088 22.2329 20.5674 22.144 20.3768 21.9534L0.27635 1.85583C-0.0921166 1.48742 -0.0921166 0.877634 0.27635 0.50922C0.644817 0.140807 1.25469 0.140807 1.62316 0.50922L21.7236 20.6068C22.0921 20.9752 22.0921 21.585 21.7236 21.9534C21.5331 22.144 21.2917 22.2329 21.0502 22.2329Z" fill="black"/>
</svg>
