<svg width="22" height="22" viewBox="0 0 22 22" fill="none" xmlns="http://www.w3.org/2000/svg">
<path d="M7.89746 21.402V12.3128C7.89746 11.6784 8.42163 11.166 9.05551 11.166H12.9563C13.5902 11.166 14.1143 11.6784 14.1143 12.3128V21.28" fill="#0EAB5A"/>
<path d="M19.0515 22H2.94852C1.94895 22 1.13222 21.207 1.0347 20.1578L0.0107418 9.263C-0.062398 8.54319 0.242351 7.83557 0.7909 7.40857L9.87243 0.393456C10.5551 -0.131152 11.4693 -0.131152 12.1398 0.393456L21.2091 7.40857C21.7576 7.83557 22.0624 8.54319 21.9893 9.263L20.9775 20.1578C20.88 21.207 20.0511 22 19.0637 22H19.0515ZM11.0183 1.83308L1.92457 8.84819C1.92457 8.84819 1.83924 8.98239 1.83924 9.09219L2.851 19.987C2.851 20.109 2.93633 20.17 2.94852 20.17H19.0515C19.0515 20.17 19.1368 20.109 19.149 19.987L20.1608 9.09219C20.1608 8.98239 20.1242 8.88479 20.0754 8.84819L11.0061 1.83308H11.0183Z" fill="#1F7448"/>
</svg>
