<svg width="24" height="21" viewBox="0 0 24 21" fill="none" xmlns="http://www.w3.org/2000/svg">
<path d="M21.8854 20.0234H2.10321C0.949451 20.0234 0 19.074 0 17.9202V2.87323C0 1.71947 0.949451 0.77002 2.10321 0.77002H21.8854C23.0392 0.77002 23.9887 1.71947 23.9887 2.87323V17.9202C23.9887 19.074 23.0392 20.0234 21.8854 20.0234ZM2.10321 2.57277C1.93496 2.57277 1.80276 2.70498 1.80276 2.87323V17.9202C1.80276 18.0885 1.93496 18.2207 2.10321 18.2207H21.8854C22.0537 18.2207 22.1859 18.0885 22.1859 17.9202V2.87323C22.1859 2.70498 22.0537 2.57277 21.8854 2.57277H2.10321Z" fill="black"/>
<path d="M1.17692 16.6704C0.948568 16.6704 0.72022 16.5862 0.539945 16.418C0.179393 16.0695 0.179393 15.4926 0.539945 15.144L4.81848 10.7934C5.59968 10.0002 6.87362 9.95211 7.71491 10.6972L10.0104 12.7283C10.1306 12.8365 10.3109 12.8245 10.419 12.7283L14.8298 8.3176C15.611 7.53641 16.8609 7.50035 17.6902 8.22146L23.6873 13.4134C24.0599 13.7379 24.108 14.3148 23.7835 14.6873C23.459 15.0599 22.8821 15.108 22.5095 14.7835L16.5124 9.59155C16.3922 9.48338 16.2119 9.4954 16.1037 9.60357L11.693 14.0143C10.9118 14.7955 9.63785 14.8316 8.80858 14.0984L6.51307 12.0673C6.39289 11.9592 6.21262 11.9712 6.10445 12.0794L1.82591 16.43C1.64563 16.6103 1.41729 16.6944 1.18894 16.6944L1.17692 16.6704Z" fill="black"/>
<path d="M7.77601 9.02663C6.18959 9.02663 4.8916 7.74067 4.8916 6.14222C4.8916 4.54378 6.17757 3.25781 7.77601 3.25781C9.37446 3.25781 10.6604 4.54378 10.6604 6.14222C10.6604 7.74067 9.37446 9.02663 7.77601 9.02663ZM7.77601 5.07259C7.18711 5.07259 6.69436 5.55333 6.69436 6.15424C6.69436 6.75516 7.17509 7.23589 7.77601 7.23589C8.37693 7.23589 8.85766 6.75516 8.85766 6.15424C8.85766 5.55333 8.37693 5.07259 7.77601 5.07259Z" fill="black"/>
</svg>
