<svg width="23" height="24" viewBox="0 0 23 24" fill="none" xmlns="http://www.w3.org/2000/svg">
<path d="M11.471 5.6748H14.0745C14.3778 5.6748 14.6179 5.92757 14.6179 6.24352V9.82009C14.6179 11.8043 12.9118 12.8911 12.0145 13.3208C11.6733 13.4851 11.2688 13.4851 10.915 13.3208C10.0177 12.8911 8.31152 11.8043 8.31152 9.82009V6.24352C8.31152 5.92757 8.55165 5.6748 8.85496 5.6748H11.4584H11.471Z" fill="#0EAB5A"/>
<path d="M18.7628 23.9997H4.20371C3.68555 23.9997 3.25586 23.57 3.25586 23.0519C3.25586 22.5337 3.68555 22.104 4.20371 22.104H18.7628C19.2809 22.104 19.7106 22.5337 19.7106 23.0519C19.7106 23.57 19.2809 23.9997 18.7628 23.9997Z" fill="#1F7448"/>
<path d="M21.0122 9.56702C20.494 9.65549 20.1402 10.1357 20.2286 10.6539C20.2918 11.0583 20.1275 11.0836 20.0643 11.0962C19.9127 11.1215 19.6094 11.033 19.5335 10.5528C19.4703 10.1357 20.1907 9.50383 20.8353 8.94776C21.8463 8.06309 23.0975 6.97622 22.8447 5.39646C22.5414 3.51338 20.7847 2.94467 19.4071 2.88148V2.21166C19.4071 0.98577 18.434 0 17.246 0H5.72011C4.53213 0 3.559 0.998408 3.559 2.21166V2.88148C2.16882 2.93203 0.348931 3.47547 0.0329796 5.39646C-0.219782 6.97622 1.03139 8.06309 2.04243 8.94776C2.68698 9.50383 3.40735 10.1357 3.34416 10.5528C3.26833 11.033 2.96501 11.1089 2.81336 11.0962C2.75017 11.0962 2.58587 11.0583 2.64906 10.6539C2.73753 10.1357 2.38366 9.65549 1.8655 9.56702C1.34734 9.47856 0.867093 9.83242 0.778626 10.3506C0.538503 11.8419 1.46108 12.7897 2.51004 12.9667C2.62379 12.9793 2.73753 12.9919 2.85127 12.9919C3.23041 12.9919 3.62219 12.8908 3.97606 12.6886C4.75962 15.014 6.49104 16.6317 8.02024 17.668C7.91914 18.1988 7.61583 19.1593 6.68061 19.9302C6.27619 20.2588 6.213 20.8528 6.55423 21.2699C6.7438 21.4974 7.0092 21.6111 7.28723 21.6111C7.50208 21.6111 7.71693 21.5353 7.88123 21.3963C8.94282 20.5242 9.46098 19.4879 9.72638 18.6664C9.77694 18.6917 9.82749 18.717 9.87804 18.7423C10.3962 18.995 10.9523 19.1088 11.5084 19.1088C12.0644 19.1088 12.6205 18.9824 13.1387 18.7423C13.1766 18.717 13.2271 18.6917 13.2777 18.6791C13.5304 19.5006 14.0486 20.5369 15.1228 21.4089C15.2998 21.5479 15.5146 21.6237 15.7168 21.6237C15.9949 21.6237 16.2603 21.51 16.4498 21.2825C16.7784 20.8781 16.7279 20.2841 16.3235 19.9429C15.3882 19.172 15.0849 18.2241 14.9838 17.6933C16.5004 16.6696 18.2318 15.0519 19.028 12.7392C19.3566 12.9035 19.7231 13.0046 20.077 13.0046C20.1907 13.0046 20.3045 13.0046 20.4182 12.9793C21.4672 12.815 22.3897 11.8545 22.1496 10.3632C22.0611 9.84506 21.5809 9.49119 21.0627 9.57966L21.0122 9.56702ZM20.9616 5.69977C21.0501 6.23057 20.3045 6.88775 19.5714 7.51965C19.5083 7.57021 19.4577 7.62076 19.3945 7.68395V4.78983C20.0138 4.82774 20.8479 5.00468 20.9616 5.71241V5.69977ZM3.28096 7.51965C2.56059 6.88775 1.81495 6.23057 1.89078 5.69977C2.01716 4.95413 2.91446 4.80247 3.54637 4.77719V7.75978C3.4579 7.68395 3.36943 7.59548 3.26833 7.51965H3.28096ZM17.4988 10.1357C17.4988 13.9398 14.2255 16.0883 12.2793 17.0361C11.7738 17.2762 11.1798 17.2762 10.6742 17.0361C8.72798 16.0883 5.45472 13.9524 5.45472 10.1357V2.2243C5.45472 2.04737 5.58109 1.90835 5.72011 1.90835H17.246C17.3851 1.90835 17.5114 2.04737 17.5114 2.2243V10.1484L17.4988 10.1357Z" fill="#1F7448"/>
</svg>
