<svg width="375" height="580" viewBox="0 0 375 580" fill="none" xmlns="http://www.w3.org/2000/svg">
<g opacity="0.1">
<path d="M359.175 244.579C359.547 243.529 360.807 243.768 360.732 244.879C360.582 247.108 360.349 249.812 359.989 252.588C359.897 253.303 360.589 253.878 361.277 253.667C396.75 242.795 378.447 203.68 352.989 186.217C352.291 185.738 351.364 186.323 351.418 187.169C352.59 205.526 339.311 221.177 338.937 239.381C339.009 246.701 344.981 254.411 352.391 254.835C355.156 254.943 357.501 249.302 359.175 244.579Z" fill="#45CB83"/>
<path d="M352.196 139.157C351.207 138.652 351.598 137.442 352.688 137.658C354.36 137.987 356.281 138.403 358.244 138.9C358.942 139.077 359.599 138.462 359.471 137.753C353.878 106.568 318.883 117.995 301.23 137.837C300.667 138.47 301.129 139.464 301.973 139.52C317.627 140.565 329.519 153.437 344.926 155.637C351.183 156.336 358.403 152.016 359.556 145.704C359.922 143.479 355.888 141.043 352.196 139.157Z" fill="#45CB83"/>
<path d="M69.1039 31.9087C69.3804 32.9866 68.2427 33.5073 67.674 32.551C67.1389 31.6513 66.5739 30.6678 66.0188 29.6454C65.6749 29.0118 64.7821 28.9388 64.3522 29.5169C49.2246 49.8594 74.8016 64.4228 96.2311 64.2593C97.0765 64.2529 97.4984 63.2394 96.9801 62.5703C89.2564 52.5997 90.3164 38.5264 83.2274 28.1572C80.202 24.0097 73.6435 22.0559 69.2322 24.8486C67.8516 25.7579 68.3343 28.9086 69.1039 31.9087Z" fill="#45CB83"/>
<path d="M-4.2081 150.925C-5.24081 150.516 -5.09321 149.295 -3.98309 149.334C-3.95323 149.335 -3.92333 149.336 -3.89338 149.337C-3.17488 149.364 -2.64454 148.651 -2.92816 147.989C-9.46398 132.738 -26.4213 141.999 -34.0797 154.249C-34.5292 154.968 -33.8852 155.862 -33.0417 155.797C-24.717 155.15 -17.0526 160.465 -8.68521 159.993C-5.18134 159.687 -1.69973 156.528 -1.75902 152.946C-1.78736 152.125 -2.85221 151.461 -4.2081 150.925Z" fill="#45CB83"/>
<path d="M286.449 200.581C286.568 199.474 287.784 199.3 288.034 200.385C288.051 200.46 288.068 200.535 288.085 200.61C288.244 201.313 289.069 201.642 289.634 201.195C302.962 190.678 289.361 176.36 275.288 172.064C274.479 171.818 273.785 172.673 274.067 173.472C276.913 181.531 273.684 190.529 276.348 198.68C277.568 202.059 281.586 204.658 285.091 203.648C285.911 203.396 286.283 202.112 286.449 200.581Z" fill="#45CB83"/>
<path d="M43.4116 127.066C43.0939 128.134 41.8488 127.99 41.8561 126.876C41.8636 125.717 41.8917 124.448 41.9546 123.147C41.9894 122.427 41.2643 121.903 40.5972 122.173C16.1873 132.054 31.0813 158.842 50.1841 170.238C50.9105 170.672 51.7974 170.022 51.6988 169.181C50.1713 156.143 58.6966 144.21 57.9847 131.165C57.5323 125.855 52.7748 120.586 47.3709 120.684C45.6257 120.748 44.3455 123.928 43.4116 127.066Z" fill="#45CB83"/>
<path d="M24.3059 208.045C24.5465 209.132 23.4029 209.624 22.8602 208.652C22.4691 207.953 22.0645 207.205 21.6655 206.434C21.3345 205.793 20.4453 205.698 20.0051 206.269C5.86857 224.582 28.8909 238.428 48.5422 238.788C49.3875 238.804 49.8324 237.8 49.3339 237.116C42.5402 227.795 43.7571 214.944 37.4743 205.305C34.7742 201.427 28.7788 199.496 24.6635 201.977C23.4405 202.744 23.7207 205.403 24.3059 208.045Z" fill="#45CB83"/>
</g>
<g opacity="0.13">
<path d="M-6.07886 453.418C-5.89745 454.517 -7.11594 454.916 -7.58719 453.908C-8.53277 451.883 -9.63472 449.404 -10.6612 446.799C-10.9254 446.129 -11.8091 445.96 -12.3096 446.477C-38.1151 473.135 -3.19062 498.538 27.536 501.527C28.3779 501.609 28.907 500.649 28.4509 499.935C18.5555 484.429 22.6199 464.31 14.1522 448.191C10.552 441.817 1.59865 437.952 -5.09388 441.161C-7.56737 442.402 -6.89508 448.474 -6.07886 453.418Z" fill="#45CB83"/>
<path d="M50.9688 542.345C52.0788 542.309 52.3206 543.557 51.2624 543.896C49.6397 544.414 47.7568 544.979 45.7975 545.492C45.1016 545.674 44.8237 546.53 45.2776 547.09C65.2417 571.69 90.3606 544.777 96.2286 518.876C96.4158 518.049 95.5311 517.403 94.7651 517.761C80.5548 524.409 63.9235 518.886 49.3714 524.403C43.5552 526.814 39.3215 534.086 41.3614 540.169C42.1164 542.293 46.8253 542.477 50.9688 542.345Z" fill="#45CB83"/>
<path d="M296.232 494.214C295.469 493.404 296.213 492.398 297.173 492.961C298.076 493.49 299.046 494.078 300.026 494.705C300.633 495.094 301.45 494.726 301.547 494.012C304.963 468.893 275.533 468.5 256.85 478.997C256.113 479.411 256.233 480.502 257.011 480.838C268.59 485.835 274.462 498.669 285.679 504.323C290.331 506.492 297.018 505.034 299.53 500.457C300.3 498.994 298.355 496.469 296.232 494.214Z" fill="#45CB83"/>
<path d="M349.491 398.891C350.592 398.75 351.053 399.89 350.062 400.392C350.035 400.406 350.009 400.419 349.982 400.433C349.34 400.756 349.22 401.637 349.788 402.079C362.879 412.274 373.251 395.973 374.038 381.547C374.084 380.7 373.088 380.229 372.381 380.694C365.405 385.282 356.127 384.332 349.029 388.788C346.109 390.749 344.587 395.197 346.369 398.304C346.791 399.009 348.044 399.076 349.491 398.891Z" fill="#45CB83"/>
<path d="M78.8517 456.801C79.2818 457.828 78.3012 458.567 77.5582 457.738C77.5072 457.681 77.456 457.624 77.4048 457.566C76.9259 457.028 76.0454 457.138 75.7659 457.802C69.1784 473.45 88.0041 479.414 102.402 476.376C103.229 476.201 103.423 475.117 102.79 474.554C96.4044 468.872 94.8845 459.435 88.6133 453.585C85.9128 451.216 81.1386 450.882 78.5578 453.46C77.9619 454.077 78.2569 455.381 78.8517 456.801Z" fill="#45CB83"/>
<path d="M319.323 442.787C319.086 441.699 320.245 441.223 320.777 442.201C321.33 443.22 321.919 444.344 322.493 445.514C322.81 446.161 323.698 446.27 324.152 445.711C340.749 425.266 314.766 409.009 292.534 408.26C291.689 408.232 291.226 409.229 291.719 409.918C299.356 420.595 297.657 435.162 304.583 446.239C307.545 450.67 314.257 452.985 318.94 450.287C320.438 449.388 320.022 445.986 319.323 442.787Z" fill="#45CB83"/>
<path d="M34.6423 408.933C35.2961 408.034 34.4194 407.132 33.5411 407.814C32.5523 408.582 31.474 409.447 30.391 410.367C29.8419 410.834 28.9822 410.576 28.7881 409.882C21.439 383.61 52.763 379.029 74.0937 387.583C74.8788 387.897 74.9044 388.994 74.1769 389.425C62.5326 396.335 58.1632 410.842 47.0518 418.451C42.4341 421.41 35.1414 420.814 31.8223 416.323C30.7578 414.827 32.6286 411.703 34.6423 408.933Z" fill="#45CB83"/>
</g>
</svg>
