<svg width="192" height="134" viewBox="0 0 192 134" fill="none" xmlns="http://www.w3.org/2000/svg">
<path d="M0.866844 42.2278C2.5555 43.2092 4.44117 43.9594 6.52385 44.4952C8.60652 45.031 10.6273 45.2961 12.5805 45.2961C21.3221 45.2961 25.6957 41.9627 25.6957 35.2904C25.6957 34.0891 25.5044 33.0005 25.1272 32.0192C24.7501 31.0434 24.1197 30.1184 23.2303 29.2498C22.3409 28.3813 21.1758 27.5578 19.7348 26.7794C18.2938 26.0011 16.5263 25.2115 14.4436 24.4106C12.0458 23.4743 10.0363 22.555 8.42077 21.6413C6.79966 20.7276 5.48251 19.7518 4.45805 18.7084C3.4336 17.665 2.70185 16.5426 2.2628 15.3412C1.81812 14.1399 1.5986 12.7862 1.5986 11.2747C1.5986 7.54088 2.83131 4.72645 5.29113 2.837C7.75656 0.947546 11.2296 0 15.7101 0C16.5995 0 17.562 0.0676818 18.609 0.197405C19.6503 0.332769 20.6748 0.518894 21.6711 0.767061C22.6674 1.00959 23.6131 1.30288 24.5024 1.63564C25.3918 1.96841 26.1686 2.33502 26.8328 2.73547L25.8984 4.80541C24.4799 4.00451 22.8475 3.38409 21.0069 2.93852C19.1663 2.49295 17.3144 2.27298 15.4456 2.27298C11.7193 2.27298 8.89922 3.04004 6.99104 4.57416C5.08286 6.10829 4.12595 8.36435 4.12595 11.3423C4.12595 12.5437 4.3117 13.6323 4.69447 14.6136C5.0716 15.595 5.72455 16.5031 6.65894 17.3491C7.59333 18.1951 8.82042 19.0186 10.3515 19.8195C11.8825 20.6204 13.802 21.489 16.1098 22.4196C20.4609 24.1117 23.568 25.9334 25.4312 27.8906C27.2943 29.8477 28.2287 32.273 28.2287 35.1607C28.2287 39.2103 26.9172 42.2899 24.2998 44.3993C21.6824 46.5143 17.8435 47.5691 12.7831 47.5691C10.2952 47.5691 7.96483 47.2927 5.79209 46.7343C3.61936 46.1759 1.68866 45.392 0 44.3654L0.866844 42.2335V42.2278Z" fill="#003619"/>
<path d="M80.1547 46.8923C79.8452 38.7987 79.5018 31.2634 79.1247 24.2809C78.7475 17.2984 78.2466 10.8743 77.6274 5.00286C76.4284 7.22508 75.1169 9.74058 73.6984 12.5381C72.28 15.3413 70.8334 18.2741 69.3699 21.3424C67.9064 24.4106 66.4316 27.5465 64.9456 30.7502C63.4596 33.9538 62.0467 37.022 60.7183 39.9549H58.0559C57.0764 37.5522 55.8831 34.7829 54.459 31.6469C53.0405 28.511 51.5376 25.3074 49.9672 22.0418C48.3911 18.7761 46.8488 15.6289 45.3403 12.6058C43.8317 9.58266 42.4977 6.95999 41.3438 4.73213C40.764 10.6938 40.2687 17.1743 39.8465 24.1794C39.4243 31.1844 39.081 38.7535 38.8164 46.8923H36.2891C36.5086 42.5324 36.7225 38.3644 36.9195 34.3824C37.1221 30.4005 37.3417 26.52 37.5837 22.7411C37.8257 18.9622 38.0959 15.2567 38.383 11.6357C38.6701 8.00906 39.0134 4.35424 39.4131 0.659937H41.4113C42.8748 3.15288 44.4396 6.0068 46.1058 9.23297C47.7719 12.4591 49.4099 15.7361 51.031 19.0694C52.6522 22.4027 54.1945 25.6853 55.658 28.9058C57.1215 32.132 58.4105 34.9859 59.5194 37.4789C60.8928 34.2752 62.3394 31.0322 63.8479 27.7383C65.3565 24.4501 66.8875 21.2127 68.4411 18.0316C69.9947 14.8506 71.5482 11.7936 73.1018 8.86072C74.6553 5.92784 76.1864 3.19237 77.6949 0.654297H79.5581C80.3124 7.14611 80.9315 14.2865 81.4212 22.07C81.9109 29.8534 82.3331 38.1218 82.6877 46.8866H80.1604L80.1547 46.8923Z" fill="#003619"/>
<path d="M125.421 46.8917L120.361 33.282H96.3932L91.4004 46.8917H88.873C90.7362 41.8212 92.4361 37.264 93.9672 33.2144C95.4982 29.1704 96.9842 25.352 98.4308 21.7761C99.8718 18.1946 101.313 14.7147 102.759 11.3362C104.2 7.95776 105.765 4.39882 107.454 0.665039H109.317C111.045 4.39882 112.644 7.95776 114.107 11.3362C115.571 14.7147 117.023 18.1946 118.47 21.7761C119.911 25.3576 121.408 29.1704 122.961 33.2144C124.515 37.264 126.226 41.8212 128.089 46.8917H125.427H125.421ZM119.562 31.0147C118.498 28.2116 117.53 25.713 116.668 23.5077C115.802 21.308 114.946 19.1704 114.107 17.1061C113.263 15.0362 112.379 12.938 111.445 10.8004C110.51 8.66842 109.469 6.26571 108.315 3.59792C107.161 6.35595 106.125 8.81506 105.219 10.9696C104.307 13.1298 103.429 15.2279 102.591 17.2753C101.746 19.3227 100.902 21.4321 100.058 23.6148C99.2133 25.7919 98.2845 28.2623 97.26 31.0203H119.562V31.0147Z" fill="#003619"/>
<path d="M159.776 46.8917H135.279V0.665039H137.745V44.6244H159.782V46.8917H159.776Z" fill="#003619"/>
<path d="M191.995 46.8917H167.498V0.665039H169.963V44.6244H192V46.8917H191.995Z" fill="#003619"/>
<path d="M23.4836 87.9868C23.1459 86.9264 22.78 85.8379 22.3916 84.7211C22.0032 83.6044 21.6148 82.4933 21.2264 81.3878H9.3439C8.96114 82.4989 8.57275 83.6156 8.18999 84.7324C7.8016 85.8491 7.44135 86.9377 7.10925 87.9868H0C1.14266 84.7042 2.22903 81.6642 3.25911 78.8779C4.28919 76.0917 5.29113 73.469 6.27618 71.0043C7.26123 68.5395 8.22939 66.2045 9.18067 63.9879C10.1376 61.7713 11.1283 59.6112 12.1527 57.4961H18.6428C19.6447 59.6055 20.6298 61.7713 21.5979 63.9879C22.5661 66.2045 23.5455 68.5395 24.5306 71.0043C25.5156 73.469 26.5232 76.0917 27.5533 78.8779C28.5833 81.6642 29.6697 84.6985 30.818 87.9868H23.4836ZM15.2542 64.4053C15.1022 64.8509 14.8771 65.4487 14.5844 66.2101C14.2917 66.9715 13.9539 67.8514 13.5768 68.8497C13.1997 69.848 12.7775 70.9479 12.3159 72.1492C11.8487 73.3506 11.3815 74.6083 10.8975 75.9281H19.5997C19.1325 74.6083 18.6822 73.3449 18.2488 72.1379C17.8097 70.9309 17.3988 69.8311 17.0048 68.8328C16.6108 67.8345 16.2674 66.9546 15.9691 66.1932C15.6707 65.4318 15.4343 64.8339 15.2542 64.4053Z" fill="#005F2C"/>
<path d="M47.507 88.6007C42.5592 88.6007 38.7935 87.2245 36.2042 84.4665C33.615 81.7085 32.3203 77.7942 32.3203 72.7181C32.3203 70.1969 32.7143 67.9465 33.508 65.9668C34.296 63.9871 35.3824 62.3176 36.7559 60.9527C38.1293 59.5878 39.7729 58.5556 41.6755 57.8506C43.578 57.1456 45.6382 56.7959 47.8672 56.7959C49.1562 56.7959 50.327 56.8918 51.3796 57.0835C52.4322 57.2753 53.3554 57.4953 54.1434 57.7434C54.9314 57.9916 55.59 58.2511 56.1191 58.5161C56.6482 58.7812 57.0254 58.9843 57.2618 59.1309L55.2861 64.6752C54.346 64.1789 53.2597 63.7502 52.0157 63.4005C50.7717 63.0508 49.3589 62.8703 47.7772 62.8703C46.7246 62.8703 45.6888 63.0452 44.6813 63.4005C43.6737 63.7559 42.7787 64.3199 42.0019 65.0926C41.2252 65.8709 40.606 66.8749 40.1332 68.1044C39.666 69.334 39.4296 70.8342 39.4296 72.594C39.4296 74.004 39.5815 75.3125 39.8911 76.5308C40.2007 77.7491 40.6961 78.7981 41.3828 79.678C42.0695 80.5579 42.9701 81.2572 44.0846 81.7705C45.1991 82.2838 46.5444 82.5432 48.1261 82.5432C49.1225 82.5432 50.0118 82.4868 50.8055 82.3684C51.5935 82.2499 52.2971 82.1146 52.9107 81.951C53.5242 81.7874 54.0646 81.6069 54.5374 81.3983C55.0046 81.1952 55.4324 81.0034 55.8095 80.8286L57.6952 86.3277C56.727 86.9143 55.3705 87.4445 53.6143 87.9126C51.8581 88.3808 49.8204 88.6176 47.5126 88.6176L47.507 88.6007Z" fill="#005F2C"/>
<path d="M85.5695 57.502V63.3508H76.3945V87.987H69.5442V63.3508H60.3691V57.502H85.5695Z" fill="#005F2C"/>
<path d="M89.959 57.502H96.8093V87.987H89.959V57.502Z" fill="#005F2C"/>
<path d="M132.816 72.718C132.816 75.3294 132.427 77.625 131.651 79.6047C130.874 81.5844 129.816 83.2426 128.465 84.5737C127.119 85.9104 125.515 86.9143 123.658 87.5855C121.8 88.2623 119.802 88.5951 117.663 88.5951C115.524 88.5951 113.621 88.2567 111.781 87.5855C109.934 86.9087 108.325 85.9047 106.951 84.5737C105.572 83.2369 104.491 81.5844 103.703 79.6047C102.915 77.625 102.516 75.3294 102.516 72.718C102.516 70.1067 102.927 67.8111 103.743 65.8314C104.565 63.8517 105.668 62.1879 107.058 60.8399C108.448 59.4919 110.058 58.4767 111.888 57.8055C113.717 57.1287 115.642 56.7959 117.663 56.7959C119.684 56.7959 121.704 57.1343 123.545 57.8055C125.391 58.4823 126.996 59.4919 128.375 60.8399C129.748 62.1879 130.834 63.8517 131.622 65.8314C132.41 67.8111 132.81 70.1067 132.81 72.718H132.816ZM109.591 72.718C109.591 74.2127 109.771 75.5607 110.143 76.7677C110.509 77.969 111.032 79.0068 111.724 79.8698C112.411 80.7327 113.255 81.4039 114.252 81.872C115.248 82.3402 116.385 82.577 117.674 82.577C118.963 82.577 120.066 82.3402 121.074 81.872C122.082 81.4039 122.931 80.7384 123.618 79.8698C124.305 79.0068 124.834 77.969 125.2 76.7677C125.566 75.5663 125.746 74.2183 125.746 72.718C125.746 71.2178 125.56 69.8641 125.2 68.6515C124.834 67.4332 124.305 66.3954 123.618 65.5269C122.931 64.6639 122.082 63.9927 121.074 63.5246C120.066 63.0565 118.929 62.8196 117.674 62.8196C116.419 62.8196 115.242 63.0621 114.252 63.5472C113.255 64.0322 112.417 64.7034 111.724 65.572C111.038 66.4349 110.509 67.4784 110.143 68.6966C109.777 69.9149 109.591 71.2573 109.591 72.7237V72.718Z" fill="#005F2C"/>
<path d="M158.939 87.9868C156.98 84.4955 154.858 81.0494 152.573 77.6484C150.288 74.2473 147.862 71.0325 145.284 68.015V87.9868H138.523V57.5017H144.102C145.07 58.4718 146.134 59.6563 147.304 61.0663C148.475 62.4763 149.669 63.9766 150.884 65.5728C152.1 67.169 153.305 68.8272 154.509 70.5418C155.708 72.2564 156.834 73.9089 157.892 75.4882V57.4961H164.698V87.9811H158.945L158.939 87.9868Z" fill="#005F2C"/>
<path d="M180.01 82.7524C180.979 82.7524 181.772 82.6735 182.403 82.5099C183.033 82.3463 183.534 82.1264 183.917 81.85C184.294 81.5736 184.559 81.2409 184.705 80.8573C184.851 80.4794 184.924 80.0508 184.924 79.5827C184.924 78.5844 184.457 77.7552 183.517 77.0954C182.577 76.4355 180.973 75.7248 178.688 74.9634C177.691 74.6137 176.695 74.2076 175.704 73.7507C174.708 73.2939 173.819 72.7242 173.025 72.0361C172.237 71.348 171.59 70.5133 171.094 69.5263C170.599 68.5449 170.346 67.3492 170.346 65.9391C170.346 64.5291 170.61 63.2657 171.134 62.132C171.663 61.004 172.406 60.0452 173.374 59.2499C174.342 58.4603 175.507 57.8511 176.886 57.4225C178.26 56.9995 179.813 56.7852 181.542 56.7852C183.59 56.7852 185.364 57.0051 186.855 57.4451C188.347 57.885 189.58 58.37 190.542 58.8946L188.566 64.3035C187.716 63.8636 186.771 63.4744 185.735 63.136C184.694 62.7976 183.444 62.6284 181.981 62.6284C180.343 62.6284 179.161 62.854 178.446 63.3108C177.725 63.7677 177.371 64.4614 177.371 65.4033C177.371 65.9617 177.5 66.4298 177.765 66.8133C178.029 67.1969 178.401 67.5409 178.885 67.8455C179.369 68.1557 179.92 68.4321 180.551 68.6802C181.181 68.9284 181.874 69.1879 182.639 69.4529C184.221 70.0395 185.594 70.6205 186.765 71.1901C187.936 71.7598 188.91 72.4309 189.686 73.1924C190.463 73.9538 191.037 74.8506 191.42 75.8771C191.797 76.9036 191.989 78.1501 191.989 79.6165C191.989 82.4591 190.992 84.6701 189.005 86.238C187.013 87.806 184.013 88.59 180.005 88.59C178.66 88.59 177.444 88.511 176.363 88.3475C175.282 88.1839 174.32 87.9865 173.487 87.7552C172.654 87.5184 171.933 87.2702 171.336 87.0051C170.734 86.74 170.233 86.4918 169.822 86.255L171.753 80.8009C172.659 81.2973 173.779 81.7485 175.113 82.1433C176.447 82.5381 178.074 82.7355 180.01 82.7355V82.7524Z" fill="#005F2C"/>
<path d="M16.9429 128.065C16.5995 127.241 16.1492 126.198 15.5807 124.923C15.0178 123.654 14.4099 122.284 13.7569 120.806C13.104 119.334 12.4116 117.811 11.6799 116.254C10.9425 114.692 10.2501 113.22 9.60283 111.827C8.94988 110.439 8.34197 109.193 7.77908 108.099C7.21619 106.999 6.76026 106.158 6.4169 105.577C6.03976 109.627 5.73018 114.009 5.49376 118.725C5.25172 123.44 5.04908 128.2 4.88022 133.005H0C0.135093 129.92 0.292701 126.807 0.461566 123.665C0.630432 120.529 0.827442 117.439 1.0526 114.404C1.27775 111.37 1.51416 108.409 1.77309 105.527C2.03202 102.645 2.31346 99.9203 2.62305 97.3428H6.98541C7.90854 98.8543 8.90485 100.637 9.96308 102.695C11.0213 104.754 12.0852 106.908 13.149 109.153C14.2072 111.398 15.2373 113.648 16.228 115.893C17.2187 118.138 18.1305 120.191 18.9467 122.041C19.7685 120.191 20.6748 118.138 21.6711 115.893C22.6618 113.648 23.6919 111.398 24.7501 109.153C25.8083 106.908 26.8722 104.754 27.936 102.695C28.9942 100.637 29.9905 98.8543 30.9137 97.3428H35.276C36.4412 108.837 37.3137 120.721 37.8935 133H33.0132C32.8444 128.2 32.6361 123.44 32.3997 118.719C32.1577 114.004 31.8537 109.621 31.4766 105.572C31.1332 106.158 30.6829 106.993 30.1144 108.093C29.5515 109.193 28.9436 110.434 28.2906 111.821C27.6377 113.209 26.9453 114.686 26.2136 116.249C25.4762 117.811 24.7839 119.328 24.1365 120.8C23.4836 122.278 22.8757 123.648 22.3128 124.917C21.7499 126.187 21.294 127.236 20.9506 128.059H16.9429V128.065Z" fill="#15AA5A"/>
<path d="M69.4774 133.006C68.8976 131.461 68.346 129.944 67.8338 128.455C67.3215 126.96 66.7868 125.443 66.2408 123.903H50.1141L46.8775 133.012H41.6934C43.0612 129.239 44.3446 125.747 45.5435 122.544C46.7424 119.334 47.9132 116.294 49.0615 113.412C50.2098 110.53 51.3469 107.778 52.4783 105.155C53.6097 102.532 54.7861 99.9323 56.0188 97.3604H60.5894C61.8222 99.9323 63.0042 102.532 64.13 105.155C65.2558 107.778 66.3984 110.53 67.5467 113.412C68.695 116.294 69.8658 119.34 71.0647 122.544C72.2637 125.753 73.5471 129.244 74.9149 133.012H69.4718L69.4774 133.006ZM64.8054 119.78C63.7078 116.796 62.6214 113.909 61.5463 111.111C60.4656 108.314 59.3455 105.629 58.1859 103.057C56.987 105.629 55.8499 108.314 54.7692 111.111C53.6885 113.909 52.619 116.796 51.5607 119.78H64.8111H64.8054Z" fill="#15AA5A"/>
<path d="M100.234 97.3496V101.67H89.0387V133.007H84.0571V101.67H72.8613V97.3496H100.229H100.234Z" fill="#15AA5A"/>
<path d="M130.477 97.3496V101.67H119.281V133.007H114.299V101.67H103.104V97.3496H130.471H130.477Z" fill="#15AA5A"/>
<path d="M135.717 133.007V97.3496H157.439V101.619H140.698V112.217H155.592V116.385H140.698V128.731H158.722V133.001H135.717V133.007Z" fill="#15AA5A"/>
<path d="M182.443 118.082C182.989 118.77 183.682 119.667 184.52 120.784C185.359 121.901 186.22 123.136 187.115 124.489C188.005 125.843 188.888 127.259 189.761 128.736C190.633 130.214 191.376 131.636 191.995 133.006H186.552C185.866 131.703 185.123 130.383 184.318 129.047C183.513 127.71 182.702 126.43 181.88 125.211C181.059 123.993 180.242 122.854 179.443 121.788C178.638 120.727 177.912 119.797 177.259 119.007C176.814 119.041 176.358 119.058 175.897 119.058H170.015V133H165.033V97.8566C166.435 97.5126 168.005 97.2814 169.733 97.1629C171.461 97.0445 173.043 96.9824 174.484 96.9824C179.482 96.9824 183.293 97.9243 185.911 99.8138C188.528 101.703 189.84 104.512 189.84 108.251C189.84 110.62 189.215 112.645 187.965 114.32C186.716 116.001 184.875 117.253 182.443 118.077V118.082ZM174.895 101.359C172.773 101.359 171.146 101.41 170.015 101.511V114.941H173.555C175.266 114.941 176.809 114.856 178.177 114.681C179.544 114.512 180.698 114.185 181.644 113.705C182.584 113.226 183.316 112.549 183.828 111.675C184.34 110.801 184.599 109.645 184.599 108.201C184.599 106.864 184.34 105.747 183.828 104.856C183.316 103.965 182.623 103.26 181.751 102.747C180.878 102.233 179.848 101.872 178.672 101.664C177.495 101.455 176.235 101.354 174.895 101.354V101.359Z" fill="#15AA5A"/>
</svg>
