<svg width="143" height="240" viewBox="0 0 143 240" fill="none" xmlns="http://www.w3.org/2000/svg">
<g clip-path="url(#clip0_2060_41724)">
<path d="M120.444 70.6677C119.19 70.6677 118.171 69.6459 118.171 68.3892V55.5994C118.171 55.2236 117.867 54.9182 117.492 54.9182H104.735C103.482 54.9182 102.463 53.8964 102.463 52.6398C102.463 51.3831 103.482 50.3613 104.735 50.3613H117.492C120.374 50.3613 122.716 52.7102 122.716 55.5994V68.3892C122.716 69.6459 121.697 70.6677 120.444 70.6677Z" fill="#0EAB5A"/>
<path d="M117.492 105.349H104.735C103.482 105.349 102.463 104.328 102.463 103.071C102.463 101.814 103.482 100.792 104.735 100.792H117.492C117.867 100.792 118.171 100.487 118.171 100.111V87.3214C118.171 86.0647 119.19 85.043 120.444 85.043C121.697 85.043 122.716 86.0647 122.716 87.3214V100.111C122.716 103 120.374 105.349 117.492 105.349Z" fill="#0EAB5A"/>
<path d="M70.212 70.6677C68.9586 70.6677 67.9395 69.6459 67.9395 68.3892V55.5994C67.9395 52.7102 70.2822 50.3613 73.1639 50.3613H85.9204C87.1738 50.3613 88.1929 51.3831 88.1929 52.6398C88.1929 53.8964 87.1738 54.9182 85.9204 54.9182H73.1639C72.789 54.9182 72.4845 55.2236 72.4845 55.5994V68.3892C72.4845 69.6459 71.4654 70.6677 70.212 70.6677Z" fill="#0EAB5A"/>
<path d="M85.9204 105.349H73.1639C70.2822 105.349 67.9395 103 67.9395 100.111V87.3214C67.9395 86.0647 68.9586 85.043 70.212 85.043C71.4654 85.043 72.4845 86.0647 72.4845 87.3214V100.111C72.4845 100.487 72.789 100.792 73.1639 100.792H85.9204C87.1738 100.792 88.1929 101.814 88.1929 103.071C88.1929 104.328 87.1738 105.349 85.9204 105.349Z" fill="#0EAB5A"/>
<path d="M96.5195 83.7745C97.0349 85.454 99.3074 89.0831 102.494 89.9991C102.611 90.0344 102.622 90.1988 102.517 90.2575C87.2069 98.6431 83.0953 78.9945 86.3401 65.5C91.5177 72.2061 101.065 72.7699 107.015 78.4895C109.253 80.7797 109.721 85.0077 107.484 87.4388C106.359 88.625 100.081 85.2074 97.0466 83.3517C96.7655 83.1756 96.4141 83.4457 96.5078 83.7628L96.5195 83.7745Z" fill="#0EAB5A"/>
<path d="M73.1289 1.23438H117.525V8.75089C117.525 11.229 115.522 13.2373 113.05 13.2373H77.6036C75.132 13.2373 73.1289 11.229 73.1289 8.75089V1.23438Z" fill="#1C1E1D"/>
<path d="M2.3421 237.909C1.95554 237.909 1.56897 237.815 1.20584 237.616C0.0695868 236.982 -0.328688 235.561 0.292152 234.421L21.4827 196.193C22.5604 194.255 23.029 192.059 22.8533 189.851L21.717 175.652C20.8267 164.471 22.4433 153.02 26.4026 142.532L37.7769 112.407C38.3508 110.892 38.9951 109.389 39.6979 107.921L54.2115 77.6667C54.9964 76.0224 56.6246 74.9419 58.4403 74.8597C60.256 74.754 61.9779 75.6818 62.9267 77.2321L69.756 88.4482C70.6345 89.881 70.8805 91.631 70.4588 93.2634L63.3016 120.417C61.2985 128.039 61.9311 136.202 65.0938 143.424L75.5544 167.301C79.1154 175.428 79.6309 184.577 77.0069 193.069L73.6333 203.979C73.2467 205.224 71.9348 205.917 70.7048 205.53C69.4631 205.142 68.772 203.827 69.1586 202.594L72.5322 191.683C74.8164 184.284 74.3713 176.297 71.2671 169.204L60.8065 145.327C57.222 137.141 56.5075 127.875 58.78 119.242L65.9372 92.089C66.0427 91.7014 65.9841 91.2786 65.7732 90.9263L58.944 79.7102C58.944 79.7102 58.8386 79.5341 58.698 79.581C58.534 79.581 58.4871 79.6985 58.4637 79.7337L43.9501 109.988C43.3058 111.327 42.7084 112.712 42.193 114.098L30.8188 144.223C27.1054 154.065 25.5826 164.811 26.4143 175.299L27.5506 189.498C27.7966 192.634 27.1289 195.746 25.606 198.495L4.39204 236.7C3.95862 237.475 3.16207 237.909 2.3421 237.909Z" fill="#1C1E1D"/>
<path d="M74.8638 240C74.3601 240 73.8447 239.835 73.4112 239.495C72.3921 238.684 72.2281 237.216 73.0247 236.195L83.2041 223.299C85.3361 220.61 87.7843 218.178 90.5019 216.088L103.563 206.023C105.543 204.496 107.464 202.875 109.279 201.184C111.189 199.411 113.098 197.32 115.113 194.807L125.784 181.5C126.593 180.49 128.069 180.326 129.076 181.136C130.083 181.946 130.247 183.426 129.439 184.436L118.768 197.743C116.601 200.444 114.539 202.687 112.466 204.625C110.545 206.41 108.506 208.137 106.409 209.746L93.3484 219.811C90.9353 221.667 88.7565 223.828 86.8706 226.212L76.6912 239.107C76.2343 239.694 75.5432 240 74.8521 240H74.8638Z" fill="#1C1E1D"/>
<path d="M127.626 186.151H77.5954V180.279H127.626C132.651 180.279 136.751 176.18 136.751 171.13V15.0213C136.751 9.98287 132.663 5.87228 127.626 5.87228H63.0466C58.0213 5.87228 53.9214 9.97113 53.9214 15.0213V89.8224H48.0645V15.0213C48.0645 6.74137 54.7883 0 63.0466 0H127.626C135.884 0 142.608 6.74137 142.608 15.0213V171.13C142.608 179.41 135.884 186.151 127.626 186.151Z" fill="#1C1E1D"/>
</g>
<defs>
<clipPath id="clip0_2060_41724">
<rect width="142.594" height="240" fill="white"/>
</clipPath>
</defs>
</svg>
