<svg width="22" height="22" viewBox="0 0 22 22" fill="none" xmlns="http://www.w3.org/2000/svg">
<path d="M21.089 8.13017C20.5907 8.13017 20.1774 7.7176 20.1774 7.22008V2.09928C20.1774 1.95367 20.0559 1.82019 19.8979 1.82019H14.7807C14.2824 1.82019 13.8691 1.40761 13.8691 0.910094C13.8691 0.412576 14.2824 0 14.7807 0H19.8979C21.0526 0 22.0006 0.934363 22.0006 2.09928V7.20794C22.0006 7.70546 21.5874 8.11804 21.089 8.11804V8.13017Z" fill="#1F7448"/>
<path d="M19.8979 22.0004H14.7807C14.2824 22.0004 13.8691 21.5879 13.8691 21.0903C13.8691 20.5928 14.2824 20.1802 14.7807 20.1802H19.8979C20.0437 20.1802 20.1774 20.0589 20.1774 19.9133V14.8046C20.1774 14.3071 20.5907 13.8945 21.089 13.8945C21.5874 13.8945 22.0006 14.3071 22.0006 14.8046V19.9133C22.0006 21.0661 21.0647 22.0004 19.8979 22.0004Z" fill="#1F7448"/>
<path d="M0.911602 8.13017C0.41326 8.13017 0 7.7176 0 7.22008V2.09928C0 0.946498 0.935911 0 2.10276 0H7.21989C7.71823 0 8.13149 0.412576 8.13149 0.910094C8.13149 1.40761 7.71823 1.82019 7.21989 1.82019H2.10276C1.95691 1.82019 1.8232 1.94153 1.8232 2.09928V7.20794C1.8232 7.70546 1.40994 8.11804 0.911602 8.11804V8.13017Z" fill="#1F7448"/>
<path d="M7.21989 22.0004H2.10276C0.948066 22.0004 0 21.0661 0 19.9133V14.8046C0 14.3071 0.41326 13.8945 0.911602 13.8945C1.40994 13.8945 1.8232 14.3071 1.8232 14.8046V19.9133C1.8232 20.0589 1.94475 20.1802 2.10276 20.1802H7.21989C7.71823 20.1802 8.13149 20.5928 8.13149 21.0903C8.13149 21.5879 7.71823 22.0004 7.21989 22.0004Z" fill="#1F7448"/>
<path d="M10.7559 13.2014C10.9735 13.9494 11.9334 15.5815 13.2773 15.9896C13.3285 16.0032 13.3285 16.0712 13.2773 16.0984C6.8011 19.8522 5.06047 11.0524 6.44273 5C8.63132 8.00581 12.6757 8.26423 15.1843 10.8212C16.1314 11.8413 16.3234 13.7454 15.3891 14.8335C14.9155 15.3639 12.2534 13.8406 10.9735 12.9974C10.8583 12.9157 10.7047 13.0382 10.7431 13.1878L10.7559 13.2014Z" fill="#0EAB5A"/>
</svg>
