<svg width="22" height="23" viewBox="0 0 22 23" fill="none" xmlns="http://www.w3.org/2000/svg">
<path d="M10.1424 20.3877C4.54786 20.3877 0 15.8381 0 10.2539C0 4.66973 4.54786 0.120117 10.1424 0.120117C15.7369 0.120117 20.2723 4.66973 20.2723 10.2539C20.2723 15.8381 15.7244 20.3877 10.1424 20.3877ZM10.1424 1.97735C5.58204 1.97735 1.86899 5.69183 1.86899 10.2414C1.86899 14.7911 5.58204 18.5055 10.1424 18.5055C14.7027 18.5055 18.4033 14.7911 18.4033 10.2414C18.4033 5.69183 14.6902 1.97735 10.1424 1.97735Z" fill="black"/>
<path d="M21.0682 22.1203C20.8315 22.1203 20.5947 22.0331 20.4078 21.8461L16.0718 17.5084C15.7104 17.1469 15.7104 16.5486 16.0718 16.1871C16.4331 15.8256 17.0312 15.8256 17.3925 16.1871L21.7286 20.5248C22.0899 20.8863 22.0899 21.4846 21.7286 21.8461C21.5417 22.0331 21.3049 22.1203 21.0682 22.1203Z" fill="black"/>
</svg>
