<svg width="94" height="109" viewBox="0 0 94 109" fill="none" xmlns="http://www.w3.org/2000/svg">
<g filter="url(#filter0_d_2253_14137)">
<path d="M80.1825 60.0121C79.2809 60.0121 78.3649 59.8483 77.4839 59.5143C74.7281 58.4696 72.8484 56.0254 72.3252 52.8068C71.519 47.8468 75.6885 44.21 79.3667 41.0009C82.5869 38.191 85.6291 35.5385 85.1742 32.7429C85.0375 31.8969 84.6177 29.3255 80.0871 28.3697C77.4839 27.8211 74.93 28.1137 74.9046 28.1169C73.5974 28.2807 72.4063 27.352 72.2441 26.0448C72.0819 24.7377 73.009 23.5466 74.3178 23.3844C74.4529 23.3685 77.6541 22.9837 81.0715 23.704C86.0568 24.7552 89.1864 27.6939 89.8845 31.978C90.7655 37.3911 86.3765 41.2188 82.5043 44.5964C79.4955 47.2203 76.6538 49.6995 77.0355 52.0419C77.282 53.5542 78.0421 54.6244 79.1775 55.0553C80.0458 55.3845 81.0094 55.27 81.628 54.7643C82.4597 54.0853 82.4629 52.891 82.3198 52.0101C82.1083 50.7092 82.9909 49.4848 84.2917 49.2733C85.5925 49.0602 86.817 49.9443 87.0285 51.2452C87.5087 54.2014 86.6404 56.8316 84.6463 58.46C83.3948 59.4825 81.8125 60.0153 80.1841 60.0153L80.1825 60.0121Z" fill="#7E7E7E"/>
</g>
<g filter="url(#filter1_d_2253_14137)">
<path d="M13.816 60.0121C14.7177 60.0121 15.6336 59.8483 16.5146 59.5143C19.2705 58.4696 21.1501 56.0254 21.6733 52.8068C22.4796 47.8468 18.31 44.21 14.6318 41.0009C11.4116 38.191 8.36948 35.5385 8.82429 32.7429C8.96105 31.8969 9.38087 29.3255 13.9114 28.3697C16.5146 27.8211 19.0685 28.1137 19.094 28.1169C20.4011 28.2807 21.5922 27.352 21.7544 26.0448C21.9166 24.7377 20.9895 23.5466 19.6808 23.3844C19.5456 23.3685 16.3445 22.9837 12.9271 23.704C7.94171 24.7552 4.81215 27.6939 4.11404 31.978C3.23305 37.3911 7.62208 41.2188 11.4943 44.5964C14.503 47.2203 17.3447 49.6995 16.9631 52.0419C16.7166 53.5542 15.9565 54.6244 14.821 55.0553C13.9528 55.3845 12.9891 55.27 12.3705 54.7643C11.5388 54.0853 11.5356 52.891 11.6787 52.0101C11.8902 50.7092 11.0077 49.4848 9.70686 49.2733C8.40606 49.0602 7.18158 49.9443 6.97009 51.2452C6.48984 54.2014 7.3581 56.8316 9.35224 58.46C10.6038 59.4825 12.186 60.0153 13.8144 60.0153L13.816 60.0121Z" fill="#7E7E7E"/>
</g>
<g filter="url(#filter2_d_2253_14137)">
<path d="M37.1821 70.501C37.1821 70.501 37.1964 76.652 32.3096 81.9379C31.0995 83.2466 30.3982 84.9434 30.3982 86.7245V92.9661H63.1155V86.7245C63.1155 84.9434 62.4142 83.245 61.2041 81.9379C56.3173 76.652 56.3316 70.501 56.3316 70.501H37.1821Z" fill="#A6A6A6"/>
</g>
<g filter="url(#filter3_d_2253_14137)">
<path d="M47.0168 15H69.4231C72.0215 15 74.1286 17.1993 74.1286 19.9138V50.7022C74.1286 67.7717 59.4985 77.0904 51.7334 80.8354C48.7517 82.2729 45.2819 82.2729 42.3002 80.8354C34.5351 77.0904 19.905 67.7717 19.905 50.7022V19.9138C19.905 17.1993 22.0121 15 24.6105 15H47.0168Z" fill="#A6A6A6"/>
</g>
<g filter="url(#filter4_d_2253_14137)">
<path d="M46.4418 29.8281C35.7937 40.2632 28.3689 60.5004 47.1193 61.5977C47.2497 61.6056 47.3276 61.4514 47.2401 61.3528C44.8627 58.6971 44.8421 54.0966 45.3319 52.2742C45.4241 51.9291 45.8948 51.883 46.0554 52.2026C47.7728 55.6264 51.5655 62.3117 53.2639 61.876C56.6861 60.9377 58.6643 56.8111 57.9248 53.4541C55.7478 44.8462 47.3514 38.894 46.4434 29.8281H46.4418Z" fill="#DEDEDE"/>
</g>
<g filter="url(#filter5_d_2253_14137)">
<rect x="20.9465" y="92.9189" width="52.0004" height="9.22331" rx="4" fill="#7E7E7E"/>
</g>
<defs>
<filter id="filter0_d_2253_14137" x="68.2241" y="21.2676" width="25.7744" height="44.748" filterUnits="userSpaceOnUse" color-interpolation-filters="sRGB">
<feFlood flood-opacity="0" result="BackgroundImageFix"/>
<feColorMatrix in="SourceAlpha" type="matrix" values="0 0 0 0 0 0 0 0 0 0 0 0 0 0 0 0 0 0 127 0" result="hardAlpha"/>
<feOffset dy="2"/>
<feGaussianBlur stdDeviation="2"/>
<feComposite in2="hardAlpha" operator="out"/>
<feColorMatrix type="matrix" values="0 0 0 0 0 0 0 0 0 0 0 0 0 0 0 0 0 0 0.2 0"/>
<feBlend mode="normal" in2="BackgroundImageFix" result="effect1_dropShadow_2253_14137"/>
<feBlend mode="normal" in="SourceGraphic" in2="effect1_dropShadow_2253_14137" result="shape"/>
</filter>
<filter id="filter1_d_2253_14137" x="0" y="21.2676" width="25.7744" height="44.748" filterUnits="userSpaceOnUse" color-interpolation-filters="sRGB">
<feFlood flood-opacity="0" result="BackgroundImageFix"/>
<feColorMatrix in="SourceAlpha" type="matrix" values="0 0 0 0 0 0 0 0 0 0 0 0 0 0 0 0 0 0 127 0" result="hardAlpha"/>
<feOffset dy="2"/>
<feGaussianBlur stdDeviation="2"/>
<feComposite in2="hardAlpha" operator="out"/>
<feColorMatrix type="matrix" values="0 0 0 0 0 0 0 0 0 0 0 0 0 0 0 0 0 0 0.2 0"/>
<feBlend mode="normal" in2="BackgroundImageFix" result="effect1_dropShadow_2253_14137"/>
<feBlend mode="normal" in="SourceGraphic" in2="effect1_dropShadow_2253_14137" result="shape"/>
</filter>
<filter id="filter2_d_2253_14137" x="26.3982" y="70.501" width="40.7173" height="30.4648" filterUnits="userSpaceOnUse" color-interpolation-filters="sRGB">
<feFlood flood-opacity="0" result="BackgroundImageFix"/>
<feColorMatrix in="SourceAlpha" type="matrix" values="0 0 0 0 0 0 0 0 0 0 0 0 0 0 0 0 0 0 127 0" result="hardAlpha"/>
<feOffset dy="4"/>
<feGaussianBlur stdDeviation="2"/>
<feComposite in2="hardAlpha" operator="out"/>
<feColorMatrix type="matrix" values="0 0 0 0 0 0 0 0 0 0 0 0 0 0 0 0 0 0 0.25 0"/>
<feBlend mode="normal" in2="BackgroundImageFix" result="effect1_dropShadow_2253_14137"/>
<feBlend mode="normal" in="SourceGraphic" in2="effect1_dropShadow_2253_14137" result="shape"/>
</filter>
<filter id="filter3_d_2253_14137" x="4.90503" y="0" width="84.2236" height="96.9131" filterUnits="userSpaceOnUse" color-interpolation-filters="sRGB">
<feFlood flood-opacity="0" result="BackgroundImageFix"/>
<feColorMatrix in="SourceAlpha" type="matrix" values="0 0 0 0 0 0 0 0 0 0 0 0 0 0 0 0 0 0 127 0" result="hardAlpha"/>
<feOffset/>
<feGaussianBlur stdDeviation="7.5"/>
<feComposite in2="hardAlpha" operator="out"/>
<feColorMatrix type="matrix" values="0 0 0 0 0 0 0 0 0 0 0 0 0 0 0 0 0 0 0.25 0"/>
<feBlend mode="normal" in2="BackgroundImageFix" result="effect1_dropShadow_2253_14137"/>
<feBlend mode="normal" in="SourceGraphic" in2="effect1_dropShadow_2253_14137" result="shape"/>
</filter>
<filter id="filter4_d_2253_14137" x="32.615" y="25.8281" width="28.4641" height="38.0684" filterUnits="userSpaceOnUse" color-interpolation-filters="sRGB">
<feFlood flood-opacity="0" result="BackgroundImageFix"/>
<feColorMatrix in="SourceAlpha" type="matrix" values="0 0 0 0 0 0 0 0 0 0 0 0 0 0 0 0 0 0 127 0" result="hardAlpha"/>
<feOffset dy="-1"/>
<feGaussianBlur stdDeviation="1.5"/>
<feComposite in2="hardAlpha" operator="out"/>
<feColorMatrix type="matrix" values="0 0 0 0 0 0 0 0 0 0 0 0 0 0 0 0 0 0 0.25 0"/>
<feBlend mode="normal" in2="BackgroundImageFix" result="effect1_dropShadow_2253_14137"/>
<feBlend mode="normal" in="SourceGraphic" in2="effect1_dropShadow_2253_14137" result="shape"/>
</filter>
<filter id="filter5_d_2253_14137" x="16.9465" y="90.9189" width="60.0005" height="17.2236" filterUnits="userSpaceOnUse" color-interpolation-filters="sRGB">
<feFlood flood-opacity="0" result="BackgroundImageFix"/>
<feColorMatrix in="SourceAlpha" type="matrix" values="0 0 0 0 0 0 0 0 0 0 0 0 0 0 0 0 0 0 127 0" result="hardAlpha"/>
<feOffset dy="2"/>
<feGaussianBlur stdDeviation="2"/>
<feComposite in2="hardAlpha" operator="out"/>
<feColorMatrix type="matrix" values="0 0 0 0 0 0 0 0 0 0 0 0 0 0 0 0 0 0 0.2 0"/>
<feBlend mode="normal" in2="BackgroundImageFix" result="effect1_dropShadow_2253_14137"/>
<feBlend mode="normal" in="SourceGraphic" in2="effect1_dropShadow_2253_14137" result="shape"/>
</filter>
</defs>
</svg>
