<svg width="22" height="22" viewBox="0 0 22 22" fill="none" xmlns="http://www.w3.org/2000/svg">
<path d="M11.6342 22H10.3439C9.54573 22 8.82406 21.5184 8.5179 20.7851L8.02584 19.603C7.9821 19.4935 7.87277 19.4388 7.81809 19.4169C7.64314 19.3512 7.46819 19.2746 7.29324 19.198C7.23857 19.1652 7.11829 19.1323 7.00894 19.1761L5.82803 19.6687C5.0845 19.9751 4.24255 19.8 3.67396 19.2418L2.75546 18.3224C2.18688 17.7532 2.02286 16.9104 2.32902 16.1662L2.82108 14.9841C2.86481 14.8746 2.82107 14.7652 2.7992 14.6995C2.72266 14.5244 2.64612 14.3493 2.58052 14.1741C2.55865 14.1194 2.50398 14.0099 2.39464 13.9662L1.21372 13.4736C0.47018 13.1672 0 12.4448 0 11.6458V10.3542C0 9.55522 0.481114 8.83284 1.21372 8.52637L2.39464 8.03383C2.50398 7.99005 2.55865 7.8806 2.58052 7.82587C2.64612 7.65075 2.72266 7.47562 2.7992 7.3005C2.82107 7.24577 2.86481 7.12537 2.82108 7.01592L2.32902 5.83383C2.02286 5.08955 2.19781 4.24677 2.75546 3.67761L3.67396 2.75821C4.24255 2.18905 5.0845 2.02488 5.82803 2.33134L7.00894 2.82388C7.11829 2.86766 7.22763 2.82388 7.29324 2.80199C7.46819 2.72537 7.64314 2.64876 7.81809 2.58308C7.8837 2.56119 7.99304 2.50647 8.03678 2.39701L8.52882 1.21493C8.83499 0.470647 9.55666 0 10.3549 0H11.6451C12.4433 0 13.165 0.481592 13.4712 1.21493L13.9632 2.39701C14.007 2.50647 14.1163 2.56119 14.171 2.58308C14.3459 2.64876 14.5209 2.72537 14.6958 2.80199C14.7505 2.82388 14.8708 2.86766 14.9801 2.82388L16.161 2.33134C16.9046 2.02488 17.7465 2.2 18.3151 2.75821L19.2336 3.67761C19.8022 4.24677 19.9662 5.08955 19.66 5.83383L19.1789 7.01592C19.1352 7.12537 19.1789 7.23483 19.2008 7.3005C19.2773 7.47562 19.3539 7.65075 19.4195 7.82587C19.4414 7.8806 19.496 7.99005 19.6054 8.03383L20.7863 8.52637C21.5298 8.83284 22 9.55522 22 10.3542V11.6458C22 12.4448 21.5189 13.1672 20.7863 13.4736L19.6054 13.9662C19.496 14.0099 19.4414 14.1194 19.4195 14.1741C19.3539 14.3493 19.2773 14.5244 19.2008 14.6995C19.168 14.7652 19.1352 14.8746 19.1789 14.9841L19.671 16.1662C19.9771 16.9104 19.8022 17.7532 19.2445 18.3224L18.326 19.2418C17.7575 19.8109 16.9155 19.9751 16.172 19.6687L14.9911 19.1761C14.8817 19.1323 14.7724 19.1761 14.7068 19.198C14.5318 19.2746 14.3678 19.3512 14.1819 19.4169C14.1163 19.4388 14.007 19.4935 13.9632 19.603L13.4712 20.7851C13.165 21.5294 12.4433 22 11.6451 22H11.6342ZM7.11829 17.5124C7.40259 17.5124 7.68688 17.5781 7.97118 17.6985C8.11332 17.7642 8.25547 17.8189 8.39762 17.8846C8.92247 18.0816 9.32704 18.4756 9.53479 18.9682L10.0268 20.1502C10.0815 20.2816 10.2018 20.3582 10.3439 20.3582H11.6342C11.7654 20.3582 11.8966 20.2816 11.9513 20.1502L12.4433 18.9682C12.6511 18.4647 13.0557 18.0816 13.5915 17.8846C13.7336 17.8299 13.8757 17.7642 14.0179 17.7095C14.5318 17.4796 15.1004 17.4577 15.6034 17.6657L16.7843 18.1582C16.9155 18.2129 17.0577 18.1801 17.1561 18.0816L18.0746 17.1622C18.173 17.0637 18.1948 16.9214 18.1511 16.79L17.6591 15.608C17.4513 15.1045 17.4622 14.5353 17.7028 14.0209C17.7684 13.8786 17.8231 13.7363 17.8777 13.594C18.0746 13.0577 18.4682 12.6527 18.9602 12.4448L20.1412 11.9522C20.2724 11.8975 20.3489 11.7771 20.3489 11.6348V10.3433C20.3489 10.2119 20.2724 10.0806 20.1412 10.0259L18.9602 9.53333C18.4573 9.32537 18.0746 8.9204 17.8777 8.38408C17.8231 8.24179 17.7684 8.0995 17.7028 7.95721C17.4732 7.44279 17.4513 6.87363 17.6591 6.37015L18.1511 5.18806C18.2058 5.05672 18.173 4.91443 18.0746 4.81592L17.1561 3.89652C17.0577 3.79801 16.9155 3.76517 16.7843 3.8199L15.6034 4.31244C15.1004 4.5204 14.5318 4.50945 14.0179 4.26866C13.8757 4.20299 13.7336 4.14826 13.5915 4.09353C13.0666 3.89652 12.662 3.50249 12.4433 3.00995L11.9513 1.82786C11.8966 1.69652 11.7763 1.6199 11.6342 1.6199H10.3439C10.2127 1.6199 10.0815 1.69652 10.0268 1.82786L9.53479 3.00995C9.32704 3.51343 8.92246 3.89652 8.38668 4.09353C8.24453 4.14826 8.10239 4.20299 7.96024 4.26866C7.44632 4.50945 6.88867 4.5204 6.37475 4.31244L5.19384 3.8199C5.06263 3.76517 4.92047 3.79801 4.82206 3.89652L3.90358 4.81592C3.80517 4.91443 3.7833 5.05672 3.82704 5.18806L4.31908 6.37015C4.52684 6.87363 4.5159 7.44279 4.27534 7.95721C4.20974 8.0995 4.15507 8.24179 4.1004 8.38408C3.90358 8.90945 3.50994 9.32537 3.0179 9.53333L1.83698 10.0259C1.70577 10.0806 1.62922 10.201 1.62922 10.3433V11.6348C1.62922 11.7662 1.70577 11.8975 1.83698 11.9522L3.0179 12.4448C3.52088 12.6527 3.90358 13.0577 4.1004 13.594C4.15507 13.7363 4.20974 13.8786 4.27534 14.0209C4.50497 14.5353 4.52684 15.1045 4.31908 15.608L3.82704 16.79C3.77237 16.9214 3.80517 17.0637 3.90358 17.1622L4.82206 18.0816C4.92047 18.1801 5.06263 18.202 5.19384 18.1582L6.37475 17.6657C6.61531 17.5672 6.85587 17.5234 7.10736 17.5234L7.11829 17.5124Z" fill="#1F7448"/>
<path d="M11 15.6627C13.5786 15.6627 15.669 13.5702 15.669 10.9891C15.669 8.40789 13.5786 6.31543 11 6.31543C8.42143 6.31543 6.33105 8.40789 6.33105 10.9891C6.33105 13.5702 8.42143 15.6627 11 15.6627Z" fill="#0EAB5A"/>
</svg>
