<svg width="24" height="25" viewBox="0 0 24 25" fill="none" xmlns="http://www.w3.org/2000/svg">
<path d="M12 24.1328C5.38508 24.1328 0 18.7477 0 12.1328C0 5.51789 5.38508 0.132812 12 0.132812C18.6149 0.132812 24 5.51789 24 12.1328C24 18.7477 18.6149 24.1328 12 24.1328ZM12 1.9358C6.37612 1.9358 1.79104 6.50893 1.79104 12.1448C1.79104 17.7806 6.36418 22.3537 12 22.3537C17.6358 22.3537 22.209 17.7806 22.209 12.1448C22.209 6.50893 17.6358 1.9358 12 1.9358Z" fill="black"/>
<path d="M7.77242 17.2552C7.54555 17.2552 7.31869 17.1717 7.13958 16.9926C6.79332 16.6463 6.79332 16.0732 7.13958 15.7269L15.5814 7.28509C15.9276 6.93882 16.5008 6.93882 16.847 7.28509C17.1933 7.63136 17.1933 8.20449 16.847 8.55076L8.40525 16.9926C8.22615 17.1717 7.99928 17.2552 7.77242 17.2552Z" fill="black"/>
<path d="M16.2142 17.2552C15.9873 17.2552 15.7605 17.1717 15.5814 16.9926L7.13958 8.55076C6.79332 8.20449 6.79332 7.63136 7.13958 7.28509C7.48585 6.93882 8.05898 6.93882 8.40525 7.28509L16.847 15.7269C17.1933 16.0732 17.1933 16.6463 16.847 16.9926C16.6679 17.1717 16.4411 17.2552 16.2142 17.2552Z" fill="black"/>
</svg>
